<?xml version="1.0" encoding="UTF-8" ?>
<!DOCTYPE svg PUBLIC "-//W3C//DTD SVG 1.1//EN" "http://www.w3.org/Graphics/SVG/1.1/DTD/svg11.dtd">
<svg width="146pt" height="92pt" viewBox="0 0 146 92" version="1.1" xmlns="http://www.w3.org/2000/svg">
<path fill="#00ff00" d=" M 8.91 0.00 L 137.15 0.00 C 141.67 -0.44 145.59 2.71 146.00 7.24 L 146.00 85.50 C 145.17 88.48 142.99 90.99 140.04 92.00 L 6.31 92.00 C 3.47 90.46 0.64 88.27 0.00 84.91 L 0.00 6.94 C 1.08 2.88 4.57 -0.23 8.91 0.00 Z" />
<path fill="#ffffff" d=" M 137.15 0.00 L 146.00 0.00 L 146.00 7.24 C 145.59 2.71 141.67 -0.44 137.15 0.00 Z" />
<path fill="#ffffff" d=" M 73.52 13.98 C 73.33 11.92 74.69 9.71 76.95 9.82 C 92.97 9.63 109.00 9.83 125.03 9.73 C 127.65 9.74 130.31 9.62 132.90 10.16 C 134.39 11.72 133.54 14.10 133.78 16.03 C 133.43 27.42 134.38 38.88 133.27 50.23 C 113.61 50.17 93.94 50.47 74.29 50.07 C 73.72 48.10 73.40 46.06 73.47 44.00 C 73.55 34.00 73.44 23.98 73.52 13.98 Z" />
<path fill="#00ff00" d=" M 85.87 29.33 C 85.83 28.83 85.75 27.82 85.71 27.31 C 86.17 27.27 87.10 27.20 87.56 27.16 C 87.42 27.75 87.12 28.93 86.97 29.52 C 87.85 29.24 89.61 28.69 90.49 28.42 C 90.03 29.01 89.10 30.18 88.64 30.76 C 89.27 31.70 89.89 32.65 90.49 33.61 C 89.33 33.24 88.17 32.85 87.02 32.46 C 87.13 33.05 87.36 34.23 87.47 34.82 L 85.71 34.68 C 85.74 34.16 85.80 33.11 85.83 32.59 C 84.72 32.86 83.60 33.13 82.48 33.40 C 82.90 32.78 83.74 31.55 84.16 30.94 C 83.50 30.24 83.13 29.45 83.04 28.58 C 83.74 28.76 85.16 29.14 85.87 29.33 Z" />
<path fill="#00ff00" d=" M 96.42 27.34 C 96.96 27.30 98.04 27.21 98.58 27.17 C 98.42 27.76 98.11 28.95 97.95 29.54 C 98.81 29.25 100.54 28.67 101.40 28.38 C 100.97 28.99 100.10 30.20 99.66 30.80 C 100.28 31.73 100.89 32.66 101.49 33.60 C 100.61 33.32 98.86 32.76 97.99 32.48 C 98.12 33.06 98.37 34.22 98.49 34.80 C 97.97 34.77 96.93 34.72 96.41 34.69 C 96.47 34.21 96.59 33.25 96.64 32.77 C 95.46 32.95 94.28 33.13 93.09 33.25 C 93.79 32.48 94.50 31.71 95.21 30.94 C 94.63 30.07 94.07 29.19 93.53 28.30 C 94.30 28.60 95.84 29.18 96.61 29.48 C 96.56 28.94 96.47 27.87 96.42 27.34 Z" />
<path fill="#00ff00" d=" M 107.28 29.35 C 107.92 28.39 108.55 27.41 109.15 26.42 C 109.21 27.18 109.32 28.70 109.38 29.45 C 110.19 29.21 111.81 28.71 112.62 28.47 C 112.05 29.05 110.91 30.23 110.34 30.81 C 111.10 31.71 111.83 32.65 112.51 33.61 C 111.72 33.33 110.12 32.79 109.32 32.51 C 109.27 33.29 109.17 34.84 109.12 35.61 C 108.57 34.59 107.94 33.61 107.30 32.64 C 106.40 32.95 105.49 33.26 104.59 33.57 C 104.98 32.87 105.76 31.49 106.15 30.80 C 105.75 30.20 104.96 29.00 104.56 28.40 C 105.24 28.64 106.60 29.11 107.28 29.35 Z" />
<path fill="#ffffff" d=" M 48.56 45.25 C 52.04 45.25 55.52 45.25 59.00 45.24 C 59.00 52.58 59.00 59.91 59.00 67.25 C 60.58 67.25 62.17 67.25 63.75 67.25 C 63.75 69.50 63.75 71.75 63.76 74.00 C 62.17 74.00 60.58 74.00 59.00 74.00 C 59.00 76.92 59.00 79.83 59.00 82.75 C 56.25 82.75 53.50 82.75 50.75 82.75 C 50.75 79.83 50.75 76.92 50.75 74.00 C 45.32 73.99 39.89 74.01 34.46 73.99 C 34.64 71.50 33.94 68.72 35.48 66.54 C 39.81 59.43 44.23 52.37 48.56 45.25 Z" />
<path fill="#00ff00" d=" M 42.84 67.24 C 45.74 61.96 48.79 56.74 51.23 51.22 C 51.11 56.57 50.98 61.91 50.69 67.25 C 48.07 67.25 45.46 67.25 42.84 67.24 Z" />
<path fill="#ffffff" d=" M 14.80 56.78 C 19.86 53.45 26.38 53.82 32.07 55.02 C 31.55 57.06 31.04 59.10 30.53 61.13 C 27.10 60.89 22.55 59.65 20.14 62.92 C 17.12 66.18 17.04 72.38 21.08 74.83 C 23.92 77.09 27.76 76.24 31.03 75.68 C 31.27 77.87 31.52 80.05 31.79 82.23 C 25.49 83.61 17.60 84.50 12.84 79.13 C 7.75 72.78 8.23 61.99 14.80 56.78 Z" />
<path fill="#ffffff" d=" M 74.06 57.89 C 74.17 56.75 74.73 55.40 76.03 55.30 C 79.15 54.63 82.37 55.05 85.50 55.43 C 85.79 59.14 87.41 64.01 84.17 66.81 C 81.39 66.74 78.62 66.74 75.84 66.79 C 73.30 64.51 73.94 60.93 74.06 57.89 Z" />
<path fill="#ffffff" d=" M 90.74 55.65 C 94.04 54.37 97.71 55.11 101.14 55.36 C 101.48 58.83 101.97 62.46 101.03 65.88 C 98.29 67.55 94.84 66.45 91.80 66.82 C 89.03 63.94 89.59 59.13 90.74 55.65 Z" />
<path fill="#ffffff" d=" M 105.59 55.70 C 109.20 54.68 113.01 54.84 116.68 55.43 C 117.00 58.60 117.26 61.83 116.81 65.01 C 116.45 67.27 113.68 66.61 112.05 66.81 C 109.94 66.62 106.75 67.49 105.76 64.92 C 105.21 61.88 105.56 58.77 105.59 55.70 Z" />
<path fill="#ffffff" d=" M 121.46 55.49 C 124.98 54.84 128.58 54.89 132.12 55.33 C 132.84 58.61 133.24 62.18 132.33 65.43 C 129.94 67.89 125.97 66.31 122.92 66.82 C 119.68 63.99 121.15 59.22 121.46 55.49 Z" />
<path fill="#ffffff" d=" M 75.02 71.83 C 78.47 71.84 83.25 70.11 85.69 73.30 C 86.02 76.44 86.81 80.25 84.99 83.04 C 81.69 83.40 78.30 83.47 75.01 82.94 C 73.15 79.61 73.78 75.30 75.02 71.83 Z" />
<path fill="#ffffff" d=" M 91.22 71.87 C 94.28 71.40 97.84 70.85 100.68 72.35 C 102.36 75.59 101.27 79.59 101.19 83.11 C 97.82 83.24 94.43 83.47 91.08 83.06 C 89.64 81.79 90.09 79.73 89.95 78.04 C 90.15 75.97 89.35 73.37 91.22 71.87 Z" />
<path fill="#ffffff" d=" M 105.51 72.89 C 108.05 71.28 111.08 71.29 113.97 71.51 C 115.39 71.50 116.96 72.45 116.90 74.03 C 117.20 77.04 116.98 80.07 116.72 83.08 C 113.20 83.20 109.62 83.62 106.14 82.89 C 104.96 79.70 105.66 76.21 105.51 72.89 Z" />
<path fill="#ffffff" d=" M 120.99 72.93 C 123.69 71.21 126.97 71.24 130.04 71.62 C 131.23 71.92 132.58 72.69 132.64 74.07 C 132.98 77.09 132.83 80.16 132.19 83.13 C 128.68 82.99 124.76 84.03 121.52 82.51 C 120.49 79.46 121.17 76.10 120.99 72.93 Z" />
<path fill="#ffffff" d=" M 0.00 84.91 C 0.64 88.27 3.47 90.46 6.31 92.00 L 0.00 92.00 L 0.00 84.91 Z" />
<path fill="#ffffff" d=" M 140.04 92.00 C 142.99 90.99 145.17 88.48 146.00 85.50 L 146.00 92.00 L 140.04 92.00 Z" />
</svg>
