<?xml version="1.0" encoding="UTF-8" ?>
<!DOCTYPE svg PUBLIC "-//W3C//DTD SVG 1.1//EN" "http://www.w3.org/Graphics/SVG/1.1/DTD/svg11.dtd">
<svg width="197pt" height="179pt" viewBox="0 0 197 179" version="1.1" xmlns="http://www.w3.org/2000/svg">
<path fill="#990000" d=" M 103.94 0.91 C 106.16 1.00 108.37 1.05 110.58 1.20 C 111.26 3.07 112.06 4.96 112.02 6.99 C 112.40 15.57 112.38 24.16 112.81 32.73 C 109.11 32.76 105.40 32.75 101.70 32.74 C 102.12 23.48 102.15 14.20 102.53 4.93 C 102.45 3.44 103.33 2.19 103.94 0.91 Z" />
<path fill="#990000" d=" M 60.22 16.08 C 60.88 13.97 62.47 11.26 65.04 11.46 C 67.12 11.23 68.67 12.91 69.58 14.57 C 73.27 20.63 76.98 26.67 80.66 32.74 C 76.52 32.75 72.39 32.75 68.25 32.75 C 65.66 27.16 62.37 21.86 60.22 16.08 Z" />
<path fill="#990000" d=" M 145.98 12.98 C 148.46 9.78 152.61 12.49 154.50 14.95 C 153.36 21.93 148.45 27.48 145.57 33.79 C 141.66 32.70 137.60 32.62 133.58 32.72 C 137.75 26.17 141.73 19.49 145.98 12.98 Z" />
<path fill="#990000" d=" M 176.31 44.19 C 178.12 43.20 180.16 42.88 182.16 42.49 C 185.74 44.26 186.20 49.53 182.81 51.73 C 174.61 56.72 166.26 61.45 158.02 66.38 C 157.99 62.03 157.99 57.68 158.02 53.33 C 164.15 50.34 170.22 47.25 176.31 44.19 Z" />
<path fill="#990000" d=" M 4.42 45.67 C 6.50 44.81 8.82 44.82 11.04 44.74 C 52.69 44.77 94.35 44.74 136.01 44.75 C 138.33 44.92 140.86 44.74 142.92 45.99 C 145.49 47.76 146.34 51.06 146.26 54.03 C 146.23 78.70 146.26 103.37 146.24 128.03 C 146.58 132.52 142.68 137.03 138.02 136.51 C 95.00 136.50 51.97 136.49 8.95 136.51 C 4.81 136.87 1.22 133.54 0.00 129.79 L 0.00 51.15 C 1.12 49.11 2.28 46.82 4.42 45.67 Z" />
<path fill="#ffffff" d=" M 73.72 61.07 C 73.77 59.08 73.50 56.73 75.05 55.19 C 76.56 54.35 78.34 54.54 80.00 54.47 C 96.65 54.55 113.31 54.44 129.96 54.53 C 131.55 54.56 134.26 54.52 133.96 56.86 C 134.08 66.23 133.94 75.61 134.01 84.98 C 134.00 88.33 134.22 91.73 133.42 95.01 C 114.58 94.95 95.74 95.07 76.91 94.96 C 74.49 95.56 73.64 92.88 73.76 90.98 C 73.70 81.01 73.80 71.04 73.72 61.07 Z" />
<path fill="#990000" d=" M 85.65 73.84 C 86.05 72.92 86.39 71.94 87.17 71.26 C 87.28 72.00 87.50 73.46 87.62 74.20 C 88.17 73.84 89.29 73.13 89.85 72.77 C 90.00 73.09 90.31 73.74 90.46 74.06 C 89.91 74.45 88.82 75.22 88.28 75.61 C 88.87 75.87 90.07 76.41 90.67 76.67 L 89.81 78.07 C 88.96 77.66 88.11 77.26 87.26 76.85 C 87.37 77.46 87.61 78.69 87.72 79.30 L 85.95 79.21 C 85.98 78.70 86.04 77.68 86.08 77.17 C 85.05 77.41 84.01 77.61 82.97 77.78 C 83.44 76.93 83.98 76.11 84.52 75.30 C 83.90 74.53 83.29 73.75 82.69 72.96 C 83.68 73.24 84.66 73.53 85.65 73.84 Z" />
<path fill="#990000" d=" M 93.51 73.14 C 95.76 74.36 96.96 72.68 98.32 71.32 C 98.39 71.99 98.52 73.34 98.58 74.01 C 99.33 73.66 100.84 72.98 101.59 72.63 C 100.95 73.75 100.30 74.86 99.63 75.96 C 100.12 76.09 101.11 76.35 101.60 76.48 L 100.72 78.17 C 99.90 77.72 99.08 77.27 98.27 76.82 C 98.37 77.46 98.59 78.73 98.70 79.36 L 96.53 79.12 C 96.70 78.66 97.02 77.74 97.19 77.28 C 96.32 77.40 94.57 77.64 93.70 77.76 C 94.24 76.93 94.82 76.12 95.44 75.35 C 94.96 74.80 94.00 73.69 93.51 73.14 Z" />
<path fill="#990000" d=" M 108.32 71.69 C 109.41 71.85 111.22 71.80 109.52 74.09 C 110.30 73.73 111.88 73.02 112.67 72.67 C 111.92 73.74 111.14 74.78 110.31 75.80 C 111.06 76.03 111.82 76.27 112.57 76.51 L 111.77 78.15 C 110.94 77.70 110.12 77.25 109.30 76.80 C 109.44 77.41 109.72 78.62 109.87 79.22 L 107.93 79.25 C 107.97 78.73 108.05 77.69 108.09 77.18 C 107.06 77.41 106.03 77.61 104.99 77.76 C 105.45 76.93 105.95 76.11 106.48 75.32 C 105.88 74.54 105.29 73.75 104.71 72.95 C 105.74 73.25 106.76 73.56 107.78 73.89 C 107.92 73.34 108.19 72.24 108.32 71.69 Z" />
<path fill="#990000" d=" M 158.00 83.73 C 169.62 83.91 181.24 84.23 192.85 84.71 C 195.38 84.60 195.98 87.43 197.00 89.17 L 197.00 89.37 C 196.49 90.73 195.94 92.08 195.40 93.44 C 192.96 93.89 190.48 94.28 187.99 94.26 C 177.99 94.32 168.00 94.83 158.00 94.75 C 158.00 91.08 158.00 87.41 158.00 83.73 Z" />
<path fill="#ffffff" d=" M 40.31 103.34 C 43.08 98.81 45.81 94.25 48.60 89.73 C 52.15 89.76 55.70 89.75 59.25 89.75 C 59.25 97.16 59.26 104.58 59.24 111.99 C 60.83 112.00 62.41 112.00 64.00 112.00 C 64.00 114.17 64.00 116.33 64.00 118.50 C 62.42 118.50 60.83 118.50 59.25 118.50 C 59.25 121.42 59.25 124.33 59.25 127.25 C 56.50 127.25 53.75 127.25 51.00 127.25 C 51.00 124.33 51.00 121.41 50.98 118.49 C 45.46 118.51 39.95 118.51 34.44 118.49 C 33.31 112.55 37.61 108.10 40.31 103.34 Z" />
<path fill="#990000" d=" M 51.50 95.99 C 51.34 101.32 51.22 106.67 50.95 112.00 C 48.24 112.00 45.53 112.00 42.83 112.00 C 45.80 106.70 48.67 101.36 51.50 95.99 Z" />
<path fill="#ffffff" d=" M 14.63 101.65 C 19.68 98.18 26.31 98.57 32.04 99.77 C 31.55 101.81 31.06 103.84 30.59 105.88 C 27.07 105.62 22.39 104.38 20.02 107.87 C 17.13 110.99 17.13 116.79 20.92 119.19 C 23.75 121.63 27.70 120.77 31.03 120.19 C 31.29 122.39 31.52 124.59 31.73 126.80 C 26.34 127.74 20.23 128.88 15.33 125.72 C 7.51 120.53 7.54 107.48 14.63 101.65 Z" />
<path fill="#ffffff" d=" M 74.86 100.25 C 78.46 99.58 82.16 99.54 85.76 100.25 C 86.31 103.48 86.58 106.83 85.97 110.07 C 83.48 112.64 79.32 111.29 76.12 111.34 C 72.76 108.81 74.43 103.80 74.86 100.25 Z" />
<path fill="#ffffff" d=" M 91.12 100.25 C 94.45 99.50 98.14 99.31 101.39 100.48 C 101.94 103.73 102.01 107.13 101.42 110.37 C 98.66 112.28 94.31 111.84 91.28 110.82 C 89.55 107.78 89.76 103.41 91.12 100.25 Z" />
<path fill="#ffffff" d=" M 105.71 103.97 C 105.91 102.63 105.24 100.58 107.03 100.16 C 110.23 99.30 113.61 99.79 116.85 100.14 C 117.19 103.63 117.84 107.36 116.68 110.75 C 115.14 112.04 112.89 111.35 111.05 111.55 C 109.35 111.36 106.82 111.98 106.15 109.86 C 105.48 107.98 105.77 105.92 105.71 103.97 Z" />
<path fill="#ffffff" d=" M 122.16 100.31 C 125.33 99.42 128.77 99.50 131.97 100.22 C 133.89 102.95 132.87 106.80 132.79 109.96 C 130.67 112.57 126.87 111.29 123.96 111.44 C 121.67 111.49 121.10 108.84 121.21 107.06 C 121.33 104.82 120.72 102.23 122.16 100.31 Z" />
<path fill="#990000" d=" M 158.01 112.38 C 166.00 117.26 174.03 122.08 182.01 126.98 C 183.53 127.82 184.36 129.40 185.33 130.77 C 185.12 132.07 184.92 133.37 184.72 134.67 C 183.78 135.35 182.85 136.03 181.92 136.71 C 179.92 136.32 177.90 135.89 176.13 134.85 C 170.09 131.50 164.04 128.19 158.00 124.87 C 158.00 120.70 157.99 116.54 158.01 112.38 Z" />
<path fill="#ffffff" d=" M 75.58 116.60 C 78.17 115.56 81.16 115.93 83.89 116.18 C 86.96 117.02 86.21 120.58 86.30 123.01 C 86.17 124.54 86.56 126.64 85.02 127.58 C 81.80 127.89 78.51 127.95 75.31 127.47 C 73.65 124.32 73.45 119.57 75.58 116.60 Z" />
<path fill="#ffffff" d=" M 90.89 116.28 C 93.62 116.04 96.36 115.82 99.10 116.08 C 100.45 116.24 101.87 117.37 101.69 118.87 C 101.91 121.77 101.75 124.68 101.46 127.56 C 98.07 127.75 94.64 127.97 91.25 127.57 C 89.29 124.22 90.27 119.91 90.89 116.28 Z" />
<path fill="#ffffff" d=" M 105.73 117.50 C 108.59 115.37 112.21 116.10 115.53 115.92 C 117.85 117.99 117.25 121.22 117.27 124.01 C 117.00 125.19 117.65 127.28 115.99 127.61 C 113.29 127.91 110.55 127.84 107.85 127.69 C 106.37 127.91 105.75 126.20 105.79 125.04 C 105.66 122.53 105.75 120.01 105.73 117.50 Z" />
<path fill="#ffffff" d=" M 121.22 126.43 C 121.89 123.05 119.30 117.23 123.98 116.11 C 127.05 115.80 130.42 115.54 132.96 117.62 C 132.81 120.86 133.60 124.31 132.31 127.39 C 128.71 127.72 124.32 128.79 121.22 126.43 Z" />
<path fill="#990000" d=" M 60.63 161.49 C 62.72 156.92 64.77 152.31 67.15 147.89 C 71.37 147.56 75.60 147.82 79.82 147.76 C 76.45 153.12 73.28 158.60 69.87 163.93 C 68.93 165.44 67.50 166.51 66.17 167.65 C 64.82 167.36 63.47 167.07 62.12 166.79 C 61.32 165.14 59.42 163.41 60.63 161.49 Z" />
<path fill="#990000" d=" M 101.70 147.76 C 105.40 147.75 109.10 147.75 112.80 147.76 C 111.90 157.73 113.34 167.98 110.87 177.75 C 109.74 178.18 108.61 178.60 107.47 179.00 L 105.29 179.00 C 104.19 177.82 102.67 176.68 102.62 174.92 C 102.05 165.88 102.15 156.81 101.70 147.76 Z" />
<path fill="#990000" d=" M 134.67 147.76 C 138.83 147.83 143.00 147.76 147.13 147.23 C 149.51 152.93 153.76 157.94 154.50 164.24 C 153.15 165.54 151.96 167.35 149.87 167.39 C 147.49 168.25 145.84 165.99 144.77 164.23 C 141.40 158.74 138.08 153.23 134.67 147.76 Z" />
</svg>
